<svg width="256" height="256" viewBox="0 0 256 256" fill="none" xmlns="http://www.w3.org/2000/svg">
<path d="M253 128.5C253 196.099 197.092 251 128 251C58.9083 251 3 196.099 3 128.5C3 60.9006 58.9083 6 128 6C197.092 6 253 60.9006 253 128.5Z" stroke="#F5C236" stroke-width="6"/>
<path d="M33 145.869V121.538L45.6 111.979L61.2414 121.538V145.869M170.297 121.538L154.655 111.979L140.317 121.538V138.917L154.655 145.869L170.297 138.917V121.538ZM170.297 121.538V82M215.048 151.083L194.628 138.917V121.538L208.097 111.979L222 121.538V131.097" stroke="#F5C236" stroke-width="11"/>
<path d="M79.0552 117.299L100.56 105.462L122.503 117.299V142.726L100.56 154.124L79.0552 142.726V117.299Z" fill="#F5C236"/>
<path d="M203.317 126.881L208.908 123.71L214.614 126.881V133.692L208.908 136.745L203.317 133.692V126.881Z" fill="#F5C236"/>
</svg>
