<svg width="485" height="485" viewBox="0 0 485 485" fill="none" xmlns="http://www.w3.org/2000/svg">
<g clip-path="url(#clip0_0_1)">
<ellipse cx="242" cy="243" rx="243" ry="232" fill="#0D173F"/>
<path d="M101.6 362.4C89.2 362.4 78.1334 360.6 68.4 357C58.6667 353.4 51 348.133 45.4 341.2C39.8 334.4 37 326.133 37 316.4C37 312.667 37.4667 308.733 38.4 304.6C39.2 300.6 40.5334 296.333 42.4 291.8C44.2667 287.4 47.0667 283.267 50.8 279.4C54.5334 275.533 58.3334 272.4 62.2 270C66.0667 267.6 69.0667 266.4 71.2 266.4H71.8C73 266.4 73.6 266.6 73.6 267C73.6 267.267 73.3334 267.6 72.8 268C72.2667 268.4 71.6667 268.733 71 269C68.7334 269.933 65.8667 271.933 62.4 275C58.9334 277.933 55.6 281.667 52.4 286.2C49.3334 290.6 47 295.467 45.4 300.8C44.2 305.2 43.6 309.4 43.6 313.4C43.6 320.6 45.4 326.867 49 332.2C52.6 337.533 57.3334 341.933 63.2 345.4C69.0667 349 75.5334 351.667 82.6 353.4C89.6667 355.133 96.6 356 103.4 356C106.067 356 108.667 355.867 111.2 355.6C113.733 355.467 116.133 355.133 118.4 354.6C130.133 351.933 140.867 347.467 150.6 341.2C160.467 335.067 169.467 327.733 177.6 319.2C185.733 310.667 193.067 301.467 199.6 291.6C206.267 281.867 212.2 272 217.4 262C222.6 252 227.267 242.467 231.4 233.4C235.533 224.333 239.133 216.333 242.2 209.4C247 199 251.533 189.667 255.8 181.4C260.2 173 264 165.933 267.2 160.2C270.533 154.467 272.933 150.467 274.4 148.2C267.867 149.267 260.6 151 252.6 153.4C244.733 155.667 236.733 158.667 228.6 162.4C220.6 166.133 213.067 170.533 206 175.6C199.067 180.667 193.2 186.4 188.4 192.8C183.733 199.2 180.733 206.333 179.4 214.2C179.267 215.4 179.133 216.467 179 217.4C179 218.333 179 219.333 179 220.4C179 226.267 180.333 231.133 183 235C185.667 238.733 189.467 240.6 194.4 240.6C196.533 240.6 199.2 240.067 202.4 239C207.733 237.133 211.8 234.533 214.6 231.2C217.533 227.867 219.6 224.333 220.8 220.6C222 216.867 222.6 213.6 222.6 210.8C222.6 207.467 222.067 205.267 221 204.2C220.2 203.8 219.8 203.267 219.8 202.6C219.8 201.4 220.533 200.8 222 200.8C223.2 200.8 224.267 201.4 225.2 202.6C226.4 205.533 227 208.6 227 211.8C227 216.2 225.867 220.6 223.6 225C221.467 229.267 218.533 233.067 214.8 236.4C211.2 239.733 207.067 242.2 202.4 243.8C198.8 245.133 195.067 245.8 191.2 245.8C183.867 245.8 177.733 243.4 172.8 238.6C167.867 233.667 165.4 227.133 165.4 219C165.4 217 165.6 214.933 166 212.8C167.467 203.467 171.067 195.267 176.8 188.2C182.533 181 189.6 174.8 198 169.6C206.4 164.267 215.333 159.8 224.8 156.2C234.267 152.6 243.6 149.733 252.8 147.6C262.133 145.333 270.467 143.733 277.8 142.8C278.467 141.867 279.667 140.267 281.4 138C283.133 135.733 285.133 133.467 287.4 131.2C289.667 128.933 291.933 127.467 294.2 126.8C295.667 126.4 297.067 126.2 298.4 126.2C300.4 126.2 302.067 126.733 303.4 127.8C304.733 128.733 305.4 130.2 305.4 132.2C305.4 136.333 303.6 139.333 300 141.2C296.533 143.067 292.867 144.6 289 145.8C287.8 145.8 286.267 146.067 284.4 146.6C282.533 147.133 281.2 147.4 280.4 147.4C273.867 158.6 268.333 170.133 263.8 182C259.4 193.867 255.067 206.2 250.8 219C246.533 231.667 241.533 244.733 235.8 258.2C230.067 271.533 222.6 285.333 213.4 299.6C207.533 308.8 200.667 317 192.8 324.2C184.933 331.4 176.667 337.533 168 342.6C159.467 347.8 151.133 351.933 143 355C134.867 358.067 127.467 360.067 120.8 361C117.467 361.533 114.2 361.867 111 362C107.8 362.267 104.667 362.4 101.6 362.4ZM284 142.4C289.467 141.467 293.133 140.333 295 139C296.867 137.533 297.8 136.2 297.8 135C297.8 134.333 297.533 133.8 297 133.4C296.6 132.867 296.2 132.6 295.8 132.6C295 132.2 293.867 132.6 292.4 133.8C291.067 135 289.6 136.467 288 138.2C286.533 139.8 285.2 141.2 284 142.4ZM316.936 306C303.869 306 291.869 304.067 280.936 300.2C270.136 296.333 261.403 290.667 254.736 283.2C248.069 275.6 244.403 266.267 243.736 255.2C243.469 250.667 244.203 245.667 245.936 240.2C247.669 234.733 250.069 229.333 253.136 224C256.336 218.533 260.069 213.667 264.336 209.4C268.736 205 273.403 201.667 278.336 199.4C278.736 199.133 279.336 198.933 280.136 198.8C281.069 198.667 281.736 198.6 282.136 198.6C282.936 198.6 283.336 198.8 283.336 199.2C283.336 199.867 282.336 200.933 280.336 202.4C274.736 206.8 270.136 211.867 266.536 217.6C262.803 223.333 260.003 229.467 258.136 236C256.269 242.533 255.336 249.133 255.336 255.8C255.336 263.667 257.003 270.467 260.336 276.2C263.803 281.8 268.403 286.4 274.136 290C279.869 293.733 286.403 296.467 293.736 298.2C301.069 299.933 308.736 300.8 316.736 300.8C325.669 300.8 334.469 299.8 343.136 297.8C351.936 295.8 359.936 292.933 367.136 289.2C378.203 283.333 386.936 276.067 393.336 267.4C399.869 258.733 403.136 250.133 403.136 241.6C403.136 237.067 402.136 232.733 400.136 228.6C398.269 224.467 395.203 220.733 390.936 217.4C387.736 214.867 383.803 212.467 379.136 210.2C374.603 207.933 369.736 205.733 364.536 203.6C359.469 201.467 354.469 199.333 349.536 197.2C344.603 194.933 340.269 192.533 336.536 190C331.203 186.4 327.269 182.533 324.736 178.4C322.336 174.267 321.136 170.133 321.136 166C321.136 161.067 322.536 156.267 325.336 151.6C328.269 146.933 332.203 142.733 337.136 139C342.203 135.133 347.869 132.133 354.136 130C359.603 128.133 365.536 126.667 371.936 125.6C378.469 124.533 384.869 124 391.136 124C396.336 124 401.269 124.4 405.936 125.2C410.736 125.867 414.936 127.133 418.536 129C423.069 131.133 426.536 134 428.936 137.6C431.336 141.067 432.536 144.733 432.536 148.6C432.536 153.933 430.136 158.6 425.336 162.6C423.603 163.933 421.669 165.2 419.536 166.4C417.403 167.467 414.869 168.4 411.936 169.2C411.403 169.333 410.803 169.4 410.136 169.4C408.536 169.4 407.736 168.933 407.736 168C407.736 167.467 408.136 166.933 408.936 166.4C409.869 165.733 411.203 165.333 412.936 165.2C416.936 164.667 419.936 163.133 421.936 160.6C424.069 158.067 425.136 155.133 425.136 151.8C425.136 148.333 423.936 144.933 421.536 141.6C419.269 138.133 415.736 135.267 410.936 133C406.136 130.6 400.003 129.4 392.536 129.4C388.269 129.4 383.536 129.867 378.336 130.8C373.269 131.733 367.736 133.267 361.736 135.4C354.403 137.933 348.269 141.667 343.336 146.6C338.536 151.533 336.136 156.8 336.136 162.4C336.136 165.867 337.269 169.4 339.536 173C341.936 176.467 345.736 179.8 350.936 183C355.336 185.667 360.336 188.333 365.936 191C371.536 193.533 377.203 196.133 382.936 198.8C388.669 201.333 393.869 204.067 398.536 207C405.869 211.533 411.136 216.4 414.336 221.6C417.536 226.8 419.136 232.133 419.136 237.6C419.136 244 417.203 250.467 413.336 257C409.603 263.4 404.669 269.467 398.536 275.2C392.403 280.8 385.669 285.8 378.336 290.2C369.803 295.267 360.136 299.133 349.336 301.8C338.669 304.6 327.869 306 316.936 306Z" fill="#F5BB1B"/>
</g>
<defs>
<clipPath id="clip0_0_1">
<rect width="485" height="485" fill="white"/>
</clipPath>
</defs>
</svg>
