<svg width="485" height="485" viewBox="0 0 485 485" fill="none" xmlns="http://www.w3.org/2000/svg">
<path d="M106.807 361.8C94.407 361.8 83.3404 360 73.607 356.4C63.8737 352.8 56.207 347.533 50.607 340.6C45.007 333.8 42.207 325.533 42.207 315.8C42.207 312.067 42.6737 308.133 43.607 304C44.407 300 45.7404 295.733 47.607 291.2C49.4737 286.8 52.2737 282.667 56.007 278.8C59.7404 274.933 63.5404 271.8 67.407 269.4C71.2737 267 74.2737 265.8 76.407 265.8H77.007C78.207 265.8 78.807 266 78.807 266.4C78.807 266.667 78.5404 267 78.007 267.4C77.4737 267.8 76.8737 268.133 76.207 268.4C73.9404 269.333 71.0737 271.333 67.607 274.4C64.1404 277.333 60.807 281.067 57.607 285.6C54.5404 290 52.207 294.867 50.607 300.2C49.407 304.6 48.807 308.8 48.807 312.8C48.807 320 50.607 326.267 54.207 331.6C57.807 336.933 62.5404 341.333 68.407 344.8C74.2737 348.4 80.7404 351.067 87.807 352.8C94.8737 354.533 101.807 355.4 108.607 355.4C111.274 355.4 113.874 355.267 116.407 355C118.94 354.867 121.34 354.533 123.607 354C135.34 351.333 146.074 346.867 155.807 340.6C165.674 334.467 174.674 327.133 182.807 318.6C190.94 310.067 198.274 300.867 204.807 291C211.474 281.267 217.407 271.4 222.607 261.4C227.807 251.4 232.474 241.867 236.607 232.8C240.74 223.733 244.34 215.733 247.407 208.8C252.207 198.4 256.74 189.067 261.007 180.8C265.407 172.4 269.207 165.333 272.407 159.6C275.74 153.867 278.14 149.867 279.607 147.6C273.074 148.667 265.807 150.4 257.807 152.8C249.94 155.067 241.94 158.067 233.807 161.8C225.807 165.533 218.274 169.933 211.207 175C204.274 180.067 198.407 185.8 193.607 192.2C188.94 198.6 185.94 205.733 184.607 213.6C184.474 214.8 184.34 215.867 184.207 216.8C184.207 217.733 184.207 218.733 184.207 219.8C184.207 225.667 185.54 230.533 188.207 234.4C190.874 238.133 194.674 240 199.607 240C201.74 240 204.407 239.467 207.607 238.4C212.94 236.533 217.007 233.933 219.807 230.6C222.74 227.267 224.807 223.733 226.007 220C227.207 216.267 227.807 213 227.807 210.2C227.807 206.867 227.274 204.667 226.207 203.6C225.407 203.2 225.007 202.667 225.007 202C225.007 200.8 225.74 200.2 227.207 200.2C228.407 200.2 229.474 200.8 230.407 202C231.607 204.933 232.207 208 232.207 211.2C232.207 215.6 231.074 220 228.807 224.4C226.674 228.667 223.74 232.467 220.007 235.8C216.407 239.133 212.274 241.6 207.607 243.2C204.007 244.533 200.274 245.2 196.407 245.2C189.074 245.2 182.94 242.8 178.007 238C173.074 233.067 170.607 226.533 170.607 218.4C170.607 216.4 170.807 214.333 171.207 212.2C172.674 202.867 176.274 194.667 182.007 187.6C187.74 180.4 194.807 174.2 203.207 169C211.607 163.667 220.54 159.2 230.007 155.6C239.474 152 248.807 149.133 258.007 147C267.34 144.733 275.674 143.133 283.007 142.2C283.674 141.267 284.874 139.667 286.607 137.4C288.34 135.133 290.34 132.867 292.607 130.6C294.874 128.333 297.14 126.867 299.407 126.2C300.874 125.8 302.274 125.6 303.607 125.6C305.607 125.6 307.274 126.133 308.607 127.2C309.94 128.133 310.607 129.6 310.607 131.6C310.607 135.733 308.807 138.733 305.207 140.6C301.74 142.467 298.074 144 294.207 145.2C293.007 145.2 291.474 145.467 289.607 146C287.74 146.533 286.407 146.8 285.607 146.8C279.074 158 273.54 169.533 269.007 181.4C264.607 193.267 260.274 205.6 256.007 218.4C251.74 231.067 246.74 244.133 241.007 257.6C235.274 270.933 227.807 284.733 218.607 299C212.74 308.2 205.874 316.4 198.007 323.6C190.14 330.8 181.874 336.933 173.207 342C164.674 347.2 156.34 351.333 148.207 354.4C140.074 357.467 132.674 359.467 126.007 360.4C122.674 360.933 119.407 361.267 116.207 361.4C113.007 361.667 109.874 361.8 106.807 361.8ZM289.207 141.8C294.674 140.867 298.34 139.733 300.207 138.4C302.074 136.933 303.007 135.6 303.007 134.4C303.007 133.733 302.74 133.2 302.207 132.8C301.807 132.267 301.407 132 301.007 132C300.207 131.6 299.074 132 297.607 133.2C296.274 134.4 294.807 135.867 293.207 137.6C291.74 139.2 290.407 140.6 289.207 141.8ZM322.143 305.4C309.076 305.4 297.076 303.467 286.143 299.6C275.343 295.733 266.61 290.067 259.943 282.6C253.276 275 249.61 265.667 248.943 254.6C248.676 250.067 249.41 245.067 251.143 239.6C252.876 234.133 255.276 228.733 258.343 223.4C261.543 217.933 265.276 213.067 269.543 208.8C273.943 204.4 278.61 201.067 283.543 198.8C283.943 198.533 284.543 198.333 285.343 198.2C286.276 198.067 286.943 198 287.343 198C288.143 198 288.543 198.2 288.543 198.6C288.543 199.267 287.543 200.333 285.543 201.8C279.943 206.2 275.343 211.267 271.743 217C268.01 222.733 265.21 228.867 263.343 235.4C261.476 241.933 260.543 248.533 260.543 255.2C260.543 263.067 262.21 269.867 265.543 275.6C269.01 281.2 273.61 285.8 279.343 289.4C285.076 293.133 291.61 295.867 298.943 297.6C306.276 299.333 313.943 300.2 321.943 300.2C330.876 300.2 339.676 299.2 348.343 297.2C357.143 295.2 365.143 292.333 372.343 288.6C383.41 282.733 392.143 275.467 398.543 266.8C405.076 258.133 408.343 249.533 408.343 241C408.343 236.467 407.343 232.133 405.343 228C403.476 223.867 400.41 220.133 396.143 216.8C392.943 214.267 389.01 211.867 384.343 209.6C379.81 207.333 374.943 205.133 369.743 203C364.676 200.867 359.676 198.733 354.743 196.6C349.81 194.333 345.476 191.933 341.743 189.4C336.41 185.8 332.476 181.933 329.943 177.8C327.543 173.667 326.343 169.533 326.343 165.4C326.343 160.467 327.743 155.667 330.543 151C333.476 146.333 337.41 142.133 342.343 138.4C347.41 134.533 353.076 131.533 359.343 129.4C364.81 127.533 370.743 126.067 377.143 125C383.676 123.933 390.076 123.4 396.343 123.4C401.543 123.4 406.476 123.8 411.143 124.6C415.943 125.267 420.143 126.533 423.743 128.4C428.276 130.533 431.743 133.4 434.143 137C436.543 140.467 437.743 144.133 437.743 148C437.743 153.333 435.343 158 430.543 162C428.81 163.333 426.876 164.6 424.743 165.8C422.61 166.867 420.076 167.8 417.143 168.6C416.61 168.733 416.01 168.8 415.343 168.8C413.743 168.8 412.943 168.333 412.943 167.4C412.943 166.867 413.343 166.333 414.143 165.8C415.076 165.133 416.41 164.733 418.143 164.6C422.143 164.067 425.143 162.533 427.143 160C429.276 157.467 430.343 154.533 430.343 151.2C430.343 147.733 429.143 144.333 426.743 141C424.476 137.533 420.943 134.667 416.143 132.4C411.343 130 405.21 128.8 397.743 128.8C393.476 128.8 388.743 129.267 383.543 130.2C378.476 131.133 372.943 132.667 366.943 134.8C359.61 137.333 353.476 141.067 348.543 146C343.743 150.933 341.343 156.2 341.343 161.8C341.343 165.267 342.476 168.8 344.743 172.4C347.143 175.867 350.943 179.2 356.143 182.4C360.543 185.067 365.543 187.733 371.143 190.4C376.743 192.933 382.41 195.533 388.143 198.2C393.876 200.733 399.076 203.467 403.743 206.4C411.076 210.933 416.343 215.8 419.543 221C422.743 226.2 424.343 231.533 424.343 237C424.343 243.4 422.41 249.867 418.543 256.4C414.81 262.8 409.876 268.867 403.743 274.6C397.61 280.2 390.876 285.2 383.543 289.6C375.01 294.667 365.343 298.533 354.543 301.2C343.876 304 333.076 305.4 322.143 305.4Z" fill="#F5BB1B"/>
</svg>
