<svg width="669" height="208" viewBox="0 0 669 208" fill="none" xmlns="http://www.w3.org/2000/svg">
<g clip-path="url(#clip0_0_1)">
<path d="M59.1328 178.75C51.3828 178.75 44.4661 177.625 38.3828 175.375C32.2995 173.125 27.5078 169.833 24.0078 165.5C20.5078 161.25 18.7578 156.083 18.7578 150C18.7578 147.667 19.0495 145.208 19.6328 142.625C20.1328 140.125 20.9661 137.458 22.1328 134.625C23.2995 131.875 25.0495 129.292 27.3828 126.875C29.7161 124.458 32.0911 122.5 34.5078 121C36.9245 119.5 38.7995 118.75 40.1328 118.75H40.5078C41.2578 118.75 41.6328 118.875 41.6328 119.125C41.6328 119.292 41.4661 119.5 41.1328 119.75C40.7995 120 40.4245 120.208 40.0078 120.375C38.5911 120.958 36.7995 122.208 34.6328 124.125C32.4661 125.958 30.3828 128.292 28.3828 131.125C26.4661 133.875 25.0078 136.917 24.0078 140.25C23.2578 143 22.8828 145.625 22.8828 148.125C22.8828 152.625 24.0078 156.542 26.2578 159.875C28.5078 163.208 31.4661 165.958 35.1328 168.125C38.7995 170.375 42.8411 172.042 47.2578 173.125C51.6745 174.208 56.0078 174.75 60.2578 174.75C61.9245 174.75 63.5495 174.667 65.1328 174.5C66.7161 174.417 68.2161 174.208 69.6328 173.875C76.9661 172.208 83.6745 169.417 89.7578 165.5C95.9245 161.667 101.549 157.083 106.633 151.75C111.716 146.417 116.299 140.667 120.383 134.5C124.549 128.417 128.258 122.25 131.508 116C134.758 109.75 137.674 103.792 140.258 98.125C142.841 92.4583 145.091 87.4583 147.008 83.125C150.008 76.625 152.841 70.7917 155.508 65.625C158.258 60.375 160.633 55.9583 162.633 52.375C164.716 48.7917 166.216 46.2917 167.133 44.875C163.049 45.5417 158.508 46.625 153.508 48.125C148.591 49.5417 143.591 51.4167 138.508 53.75C133.508 56.0833 128.799 58.8333 124.383 62C120.049 65.1667 116.383 68.75 113.383 72.75C110.466 76.75 108.591 81.2083 107.758 86.125C107.674 86.875 107.591 87.5417 107.508 88.125C107.508 88.7083 107.508 89.3333 107.508 90C107.508 93.6667 108.341 96.7083 110.008 99.125C111.674 101.458 114.049 102.625 117.133 102.625C118.466 102.625 120.133 102.292 122.133 101.625C125.466 100.458 128.008 98.8333 129.758 96.75C131.591 94.6667 132.883 92.4583 133.633 90.125C134.383 87.7917 134.758 85.75 134.758 84C134.758 81.9167 134.424 80.5417 133.758 79.875C133.258 79.625 133.008 79.2917 133.008 78.875C133.008 78.125 133.466 77.75 134.383 77.75C135.133 77.75 135.799 78.125 136.383 78.875C137.133 80.7083 137.508 82.625 137.508 84.625C137.508 87.375 136.799 90.125 135.383 92.875C134.049 95.5417 132.216 97.9167 129.883 100C127.633 102.083 125.049 103.625 122.133 104.625C119.883 105.458 117.549 105.875 115.133 105.875C110.549 105.875 106.716 104.375 103.633 101.375C100.549 98.2917 99.0078 94.2083 99.0078 89.125C99.0078 87.875 99.1328 86.5833 99.3828 85.25C100.299 79.4167 102.549 74.2917 106.133 69.875C109.716 65.375 114.133 61.5 119.383 58.25C124.633 54.9167 130.216 52.125 136.133 49.875C142.049 47.625 147.883 45.8333 153.633 44.5C159.466 43.0833 164.674 42.0833 169.258 41.5C169.674 40.9167 170.424 39.9167 171.508 38.5C172.591 37.0833 173.841 35.6667 175.258 34.25C176.674 32.8333 178.091 31.9167 179.508 31.5C180.424 31.25 181.299 31.125 182.133 31.125C183.383 31.125 184.424 31.4583 185.258 32.125C186.091 32.7083 186.508 33.625 186.508 34.875C186.508 37.4583 185.383 39.3333 183.133 40.5C180.966 41.6667 178.674 42.625 176.258 43.375C175.508 43.375 174.549 43.5417 173.383 43.875C172.216 44.2083 171.383 44.375 170.883 44.375C166.799 51.375 163.341 58.5833 160.508 66C157.758 73.4167 155.049 81.125 152.383 89.125C149.716 97.0417 146.591 105.208 143.008 113.625C139.424 121.958 134.758 130.583 129.008 139.5C125.341 145.25 121.049 150.375 116.133 154.875C111.216 159.375 106.049 163.208 100.633 166.375C95.2995 169.625 90.0911 172.208 85.0078 174.125C79.9245 176.042 75.2995 177.292 71.1328 177.875C69.0495 178.208 67.0078 178.417 65.0078 178.5C63.0078 178.667 61.0495 178.75 59.1328 178.75ZM173.133 41.25C176.549 40.6667 178.841 39.9583 180.008 39.125C181.174 38.2083 181.758 37.375 181.758 36.625C181.758 36.2083 181.591 35.875 181.258 35.625C181.008 35.2917 180.758 35.125 180.508 35.125C180.008 34.875 179.299 35.125 178.383 35.875C177.549 36.625 176.633 37.5417 175.633 38.625C174.716 39.625 173.883 40.5 173.133 41.25ZM161.343 132C158.176 132 155.843 130.958 154.343 128.875C152.843 126.708 152.093 124.083 152.093 121C152.093 117.25 152.968 113.333 154.718 109.25C156.384 105.417 158.509 101.917 161.093 98.75C163.676 95.5833 166.468 93.0417 169.468 91.125C172.468 89.125 175.384 88.125 178.218 88.125C181.384 88.125 183.718 89.1667 185.218 91.25C186.718 93.3333 187.468 95.9583 187.468 99.125C187.468 102.958 186.593 106.875 184.843 110.875C183.843 113.125 182.426 115.625 180.593 118.375C178.759 121.042 176.676 123.5 174.343 125.75C174.843 126.667 175.551 127.458 176.468 128.125C177.384 128.708 178.634 129 180.218 129C182.218 129 184.093 128.167 185.843 126.5C187.676 124.833 189.343 122.833 190.843 120.5C192.343 118.083 193.676 115.667 194.843 113.25C196.009 110.833 196.968 108.875 197.718 107.375C197.968 106.875 198.384 106.625 198.968 106.625C199.301 106.625 199.551 106.792 199.718 107.125C199.884 107.375 199.843 107.792 199.593 108.375C199.093 109.625 198.259 111.5 197.093 114C195.926 116.417 194.509 118.958 192.843 121.625C191.176 124.208 189.259 126.417 187.093 128.25C184.926 130.083 182.509 131 179.843 131C178.009 131 176.426 130.708 175.093 130.125C173.759 129.458 172.676 128.667 171.843 127.75C170.093 129.083 168.343 130.125 166.593 130.875C164.843 131.625 163.093 132 161.343 132ZM163.218 129.25C165.468 129.25 167.884 128.167 170.468 126C169.801 125 169.301 123.958 168.968 122.875C168.634 121.792 168.468 120.792 168.468 119.875C168.468 118.375 168.801 117.083 169.468 116C170.218 114.917 171.343 114.375 172.843 114.375C173.926 114.375 174.801 114.792 175.468 115.625C176.218 116.375 176.593 117.25 176.593 118.25C176.593 118.5 176.551 118.75 176.468 119C176.468 119.167 176.426 119.375 176.343 119.625C177.759 117.708 179.093 115.458 180.343 112.875C183.093 106.958 184.468 102.083 184.468 98.25C184.468 96.3333 184.093 94.8333 183.343 93.75C182.593 92.6667 181.468 92.125 179.968 92.125C178.218 92.125 176.301 92.875 174.218 94.375C172.218 95.875 170.259 97.875 168.343 100.375C166.509 102.875 164.884 105.667 163.468 108.75C162.134 111.583 161.051 114.333 160.218 117C159.468 119.583 159.093 121.833 159.093 123.75C159.093 125.417 159.426 126.75 160.093 127.75C160.759 128.75 161.801 129.25 163.218 129.25ZM185.338 133C188.338 126.917 191.213 120.917 193.963 115C196.796 109 199.671 103.292 202.588 97.875C204.255 94.875 205.63 92.7917 206.713 91.625C207.88 90.375 209.421 89.75 211.338 89.75C212.005 89.75 212.713 89.875 213.463 90.125C214.213 90.2917 214.963 90.375 215.713 90.375C216.213 90.375 216.588 90.3333 216.838 90.25C215.671 90.9167 214.171 92.5833 212.338 95.25C210.505 97.8333 208.63 100.833 206.713 104.25C204.796 107.667 203.088 110.875 201.588 113.875C203.171 111.958 204.796 110.042 206.463 108.125C208.213 106.208 210.13 104.375 212.213 102.625C214.213 100.875 216.588 99.0833 219.338 97.25C222.171 95.3333 224.921 93.75 227.588 92.5C230.255 91.25 232.38 90.625 233.963 90.625C234.546 90.625 234.963 90.6667 235.213 90.75C235.213 90.75 234.755 91.5833 233.838 93.25C232.921 94.8333 231.755 96.9583 230.338 99.625C229.005 102.208 227.63 105 226.213 108C224.796 110.917 223.505 113.75 222.338 116.5C221.255 119.167 220.546 121.417 220.213 123.25C219.963 124.333 219.838 125.333 219.838 126.25C219.838 127.583 220.088 128.458 220.588 128.875C221.088 129.292 221.63 129.5 222.213 129.5C223.796 129.5 225.463 128.667 227.213 127C228.963 125.25 230.63 123.125 232.213 120.625C233.88 118.125 235.338 115.708 236.588 113.375C237.921 110.958 238.88 109.125 239.463 107.875C239.796 107.208 240.046 106.833 240.213 106.75C240.38 106.583 240.63 106.5 240.963 106.5C241.463 106.5 241.713 106.833 241.713 107.5C241.713 107.917 241.588 108.375 241.338 108.875C240.338 110.792 239.13 113.083 237.713 115.75C236.38 118.417 234.838 121.042 233.088 123.625C231.338 126.125 229.421 128.25 227.338 130C225.255 131.667 223.005 132.5 220.588 132.5C218.921 132.5 217.171 131.917 215.338 130.75C213.588 129.583 212.713 127.417 212.713 124.25C212.713 123.333 212.796 122.375 212.963 121.375C213.13 120.292 213.421 119.125 213.838 117.875C214.505 116.208 215.296 114.417 216.213 112.5C217.13 110.583 218.63 107.958 220.713 104.625C221.296 103.708 221.63 103 221.713 102.5C221.88 102 221.963 101.583 221.963 101.25C221.963 100.25 221.505 99.75 220.588 99.75C219.838 99.75 218.713 100.167 217.213 101C215.796 101.833 214.005 103.292 211.838 105.375C209.755 107.375 207.255 110.208 204.338 113.875C201.505 117.542 198.213 122.958 194.463 130.125C193.88 131.208 193.213 131.792 192.463 131.875C191.796 131.958 190.838 132.042 189.588 132.125C188.755 132.208 187.963 132.25 187.213 132.25C186.463 132.333 185.838 132.583 185.338 133ZM245.33 132C242.997 132 240.913 131.208 239.08 129.625C237.247 127.958 236.33 125.375 236.33 121.875C236.33 119.125 236.83 115.75 237.83 111.75C238.913 107.667 240.205 103.458 241.705 99.125C243.288 94.7083 244.83 90.7083 246.33 87.125H239.705C239.122 87.125 238.83 86.7083 238.83 85.875C238.83 85.4583 238.913 85.0833 239.08 84.75C239.33 84.4167 239.663 84.25 240.08 84.25H247.58C248.997 81.0833 250.497 78 252.08 75C253.663 72 255.205 69.1667 256.705 66.5C258.622 63.1667 260.663 60.6667 262.83 59C264.997 57.3333 266.872 56.5 268.455 56.5C269.705 56.5 270.747 57 271.58 58C272.413 58.9167 272.83 60.3333 272.83 62.25C272.83 63.4167 272.58 65.0417 272.08 67.125C271.58 69.125 270.788 71.25 269.705 73.5C269.122 74.6667 268.288 76.3333 267.205 78.5C266.205 80.6667 265.205 82.5833 264.205 84.25H270.205C270.788 84.25 271.08 84.6667 271.08 85.5C271.08 85.8333 270.997 86.2083 270.83 86.625C270.663 86.9583 270.413 87.125 270.08 87.125H262.705C260.622 90.7083 258.247 94.2083 255.58 97.625C252.913 101.042 249.747 104.458 246.08 107.875C245.83 108.625 245.497 109.708 245.08 111.125C244.747 112.542 244.413 114 244.08 115.5C243.83 116.917 243.58 118.125 243.33 119.125C243.163 120.125 243.08 120.625 243.08 120.625C242.83 121.708 242.705 122.708 242.705 123.625C242.705 125.375 243.122 126.667 243.955 127.5C244.788 128.25 245.747 128.625 246.83 128.625C247.497 128.625 248.163 128.542 248.83 128.375C249.497 128.125 250.247 127.708 251.08 127.125C253.997 125.042 256.538 122.208 258.705 118.625C260.955 115.042 262.913 111.583 264.58 108.25C265.08 107.25 265.58 106.75 266.08 106.75C266.413 106.75 266.58 107 266.58 107.5C266.58 107.75 266.455 108.208 266.205 108.875C264.372 112.708 262.83 115.792 261.58 118.125C260.33 120.458 259.122 122.417 257.955 124C256.788 125.5 255.413 127 253.83 128.5C252.663 129.667 251.33 130.542 249.83 131.125C248.33 131.708 246.83 132 245.33 132ZM255.205 84.25H261.58C262.747 82.0833 263.83 79.9583 264.83 77.875C265.913 75.7917 266.872 73.7083 267.705 71.625C268.288 70.2917 268.788 68.7917 269.205 67.125C269.622 65.4583 269.83 64.1667 269.83 63.25C269.83 62 269.538 61.375 268.955 61.375C268.538 61.375 267.913 61.75 267.08 62.5C266.33 63.1667 265.372 64.3333 264.205 66C262.705 68.0833 261.205 70.7917 259.705 74.125C258.288 77.375 256.788 80.75 255.205 84.25ZM247.08 103.875C249.497 101.375 251.747 98.7083 253.83 95.875C255.997 93.0417 257.997 90.125 259.83 87.125H253.955C252.622 90.2083 251.372 93.2083 250.205 96.125C249.038 99.0417 247.997 101.625 247.08 103.875ZM291.352 132.375C290.435 132.458 289.393 132.25 288.227 131.75C287.06 131.25 286.018 130.333 285.102 129C284.268 127.667 283.852 125.792 283.852 123.375C283.852 121.375 284.227 118.958 284.977 116.125C283.977 117.708 282.685 119.667 281.102 122C279.518 124.25 277.81 126.25 275.977 128C274.393 129.5 272.893 130.583 271.477 131.25C270.06 131.917 268.768 132.25 267.602 132.25C265.435 132.25 263.685 131.292 262.352 129.375C261.018 127.375 260.352 124.792 260.352 121.625C260.352 118.292 261.185 114.5 262.852 110.25C264.518 106 267.227 101.583 270.977 97C273.393 94.0833 276.31 91.75 279.727 90C283.227 88.1667 286.643 87.25 289.977 87.25C291.893 87.25 293.727 87.5833 295.477 88.25C297.227 88.8333 298.768 89.8333 300.102 91.25C300.685 91.8333 300.977 92.5 300.977 93.25C300.977 93.75 300.768 94.1667 300.352 94.5C299.935 94.8333 299.393 94.9167 298.727 94.75C297.81 91.8333 295.852 90.375 292.852 90.375C291.435 90.375 289.81 90.8333 287.977 91.75C285.143 93.25 282.185 95.7083 279.102 99.125C276.102 102.542 273.477 106.083 271.227 109.75C270.893 110.25 270.352 111.208 269.602 112.625C268.935 114.042 268.268 115.625 267.602 117.375C266.935 119.125 266.477 120.833 266.227 122.5C266.143 123 266.102 123.375 266.102 123.625C266.102 123.792 266.102 124.083 266.102 124.5C266.102 127.25 267.143 128.625 269.227 128.625C271.727 128.625 274.56 126.792 277.727 123.125C279.893 120.458 281.852 117.667 283.602 114.75C285.352 111.833 287.143 108.708 288.977 105.375C290.227 103.125 291.393 101.25 292.477 99.75C293.56 98.25 295.102 97.5 297.102 97.5C298.018 97.5 298.935 97.625 299.852 97.875C300.768 98.125 301.727 98.1667 302.727 98C302.06 98.6667 301.143 99.9167 299.977 101.75C298.893 103.583 297.727 105.667 296.477 108C295.227 110.333 294.102 112.708 293.102 115.125C292.102 117.542 291.393 119.625 290.977 121.375C290.893 121.875 290.768 122.583 290.602 123.5C290.518 124.417 290.477 125.083 290.477 125.5C290.477 127.833 291.143 129 292.477 129C293.81 129 295.227 128.208 296.727 126.625C298.31 125.042 299.852 123.083 301.352 120.75C302.852 118.417 304.227 116.083 305.477 113.75C306.727 111.333 307.727 109.375 308.477 107.875C308.81 107.042 309.31 106.625 309.977 106.625C310.393 106.625 310.602 106.917 310.602 107.5C310.602 107.75 310.477 108.208 310.227 108.875C309.227 110.958 308.018 113.333 306.602 116C305.185 118.583 303.643 121.125 301.977 123.625C300.31 126.042 298.56 128.083 296.727 129.75C294.977 131.333 293.185 132.208 291.352 132.375ZM379.143 143.5C370.976 143.5 363.476 142.292 356.643 139.875C349.893 137.458 344.434 133.917 340.268 129.25C336.101 124.5 333.809 118.667 333.393 111.75C333.226 108.917 333.684 105.792 334.768 102.375C335.851 98.9583 337.351 95.5833 339.268 92.25C341.268 88.8333 343.601 85.7917 346.268 83.125C349.018 80.375 351.934 78.2917 355.018 76.875C355.268 76.7083 355.643 76.5833 356.143 76.5C356.726 76.4167 357.143 76.375 357.393 76.375C357.893 76.375 358.143 76.5 358.143 76.75C358.143 77.1667 357.518 77.8333 356.268 78.75C352.768 81.5 349.893 84.6667 347.643 88.25C345.309 91.8333 343.559 95.6667 342.393 99.75C341.226 103.833 340.643 107.958 340.643 112.125C340.643 117.042 341.684 121.292 343.768 124.875C345.934 128.375 348.809 131.25 352.393 133.5C355.976 135.833 360.059 137.542 364.643 138.625C369.226 139.708 374.018 140.25 379.018 140.25C384.601 140.25 390.101 139.625 395.518 138.375C401.018 137.125 406.018 135.333 410.518 133C417.434 129.333 422.893 124.792 426.893 119.375C430.976 113.958 433.018 108.583 433.018 103.25C433.018 100.417 432.393 97.7083 431.143 95.125C429.976 92.5417 428.059 90.2083 425.393 88.125C423.393 86.5417 420.934 85.0417 418.018 83.625C415.184 82.2083 412.143 80.8333 408.893 79.5C405.726 78.1667 402.601 76.8333 399.518 75.5C396.434 74.0833 393.726 72.5833 391.393 71C388.059 68.75 385.601 66.3333 384.018 63.75C382.518 61.1667 381.768 58.5833 381.768 56C381.768 52.9167 382.643 49.9167 384.393 47C386.226 44.0833 388.684 41.4583 391.768 39.125C394.934 36.7083 398.476 34.8333 402.393 33.5C405.809 32.3333 409.518 31.4167 413.518 30.75C417.601 30.0833 421.601 29.75 425.518 29.75C428.768 29.75 431.851 30 434.768 30.5C437.768 30.9167 440.393 31.7083 442.643 32.875C445.476 34.2083 447.643 36 449.143 38.25C450.643 40.4167 451.393 42.7083 451.393 45.125C451.393 48.4583 449.893 51.375 446.893 53.875C445.809 54.7083 444.601 55.5 443.268 56.25C441.934 56.9167 440.351 57.5 438.518 58C438.184 58.0833 437.809 58.125 437.393 58.125C436.393 58.125 435.893 57.8333 435.893 57.25C435.893 56.9167 436.143 56.5833 436.643 56.25C437.226 55.8333 438.059 55.5833 439.143 55.5C441.643 55.1667 443.518 54.2083 444.768 52.625C446.101 51.0417 446.768 49.2083 446.768 47.125C446.768 44.9583 446.018 42.8333 444.518 40.75C443.101 38.5833 440.893 36.7917 437.893 35.375C434.893 33.875 431.059 33.125 426.393 33.125C423.726 33.125 420.768 33.4167 417.518 34C414.351 34.5833 410.893 35.5417 407.143 36.875C402.559 38.4583 398.726 40.7917 395.643 43.875C392.643 46.9583 391.143 50.25 391.143 53.75C391.143 55.9167 391.851 58.125 393.268 60.375C394.768 62.5417 397.143 64.625 400.393 66.625C403.143 68.2917 406.268 69.9583 409.768 71.625C413.268 73.2083 416.809 74.8333 420.393 76.5C423.976 78.0833 427.226 79.7917 430.143 81.625C434.726 84.4583 438.018 87.5 440.018 90.75C442.018 94 443.018 97.3333 443.018 100.75C443.018 104.75 441.809 108.792 439.393 112.875C437.059 116.875 433.976 120.667 430.143 124.25C426.309 127.75 422.101 130.875 417.518 133.625C412.184 136.792 406.143 139.208 399.393 140.875C392.726 142.625 385.976 143.5 379.143 143.5ZM481.049 132.375C480.132 132.458 479.09 132.25 477.924 131.75C476.757 131.25 475.715 130.333 474.799 129C473.965 127.667 473.549 125.792 473.549 123.375C473.549 121.375 473.924 118.958 474.674 116.125C473.674 117.708 472.382 119.667 470.799 122C469.215 124.25 467.507 126.25 465.674 128C464.09 129.5 462.59 130.583 461.174 131.25C459.757 131.917 458.465 132.25 457.299 132.25C455.132 132.25 453.382 131.292 452.049 129.375C450.715 127.375 450.049 124.792 450.049 121.625C450.049 118.292 450.882 114.5 452.549 110.25C454.215 106 456.924 101.583 460.674 97C463.09 94.0833 466.007 91.75 469.424 90C472.924 88.1667 476.34 87.25 479.674 87.25C481.59 87.25 483.424 87.5833 485.174 88.25C486.924 88.8333 488.465 89.8333 489.799 91.25C490.382 91.8333 490.674 92.5 490.674 93.25C490.674 93.75 490.465 94.1667 490.049 94.5C489.632 94.8333 489.09 94.9167 488.424 94.75C487.507 91.8333 485.549 90.375 482.549 90.375C481.132 90.375 479.507 90.8333 477.674 91.75C474.84 93.25 471.882 95.7083 468.799 99.125C465.799 102.542 463.174 106.083 460.924 109.75C460.59 110.25 460.049 111.208 459.299 112.625C458.632 114.042 457.965 115.625 457.299 117.375C456.632 119.125 456.174 120.833 455.924 122.5C455.84 123 455.799 123.375 455.799 123.625C455.799 123.792 455.799 124.083 455.799 124.5C455.799 127.25 456.84 128.625 458.924 128.625C461.424 128.625 464.257 126.792 467.424 123.125C469.59 120.458 471.549 117.667 473.299 114.75C475.049 111.833 476.84 108.708 478.674 105.375C479.924 103.125 481.09 101.25 482.174 99.75C483.257 98.25 484.799 97.5 486.799 97.5C487.715 97.5 488.632 97.625 489.549 97.875C490.465 98.125 491.424 98.1667 492.424 98C491.757 98.6667 490.84 99.9167 489.674 101.75C488.59 103.583 487.424 105.667 486.174 108C484.924 110.333 483.799 112.708 482.799 115.125C481.799 117.542 481.09 119.625 480.674 121.375C480.59 121.875 480.465 122.583 480.299 123.5C480.215 124.417 480.174 125.083 480.174 125.5C480.174 127.833 480.84 129 482.174 129C483.507 129 484.924 128.208 486.424 126.625C488.007 125.042 489.549 123.083 491.049 120.75C492.549 118.417 493.924 116.083 495.174 113.75C496.424 111.333 497.424 109.375 498.174 107.875C498.507 107.042 499.007 106.625 499.674 106.625C500.09 106.625 500.299 106.917 500.299 107.5C500.299 107.75 500.174 108.208 499.924 108.875C498.924 110.958 497.715 113.333 496.299 116C494.882 118.583 493.34 121.125 491.674 123.625C490.007 126.042 488.257 128.083 486.424 129.75C484.674 131.333 482.882 132.208 481.049 132.375ZM486.119 133C489.119 126.917 491.994 120.917 494.744 115C497.577 109 500.452 103.292 503.369 97.875C505.036 94.875 506.411 92.7917 507.494 91.625C508.661 90.375 510.202 89.75 512.119 89.75C512.786 89.75 513.494 89.875 514.244 90.125C514.994 90.2917 515.744 90.375 516.494 90.375C516.994 90.375 517.369 90.3333 517.619 90.25C516.452 90.9167 514.952 92.5833 513.119 95.25C511.286 97.8333 509.411 100.833 507.494 104.25C505.577 107.667 503.869 110.875 502.369 113.875C503.952 111.958 505.577 110.042 507.244 108.125C508.994 106.208 510.911 104.375 512.994 102.625C514.994 100.875 517.369 99.0833 520.119 97.25C522.952 95.3333 525.702 93.75 528.369 92.5C531.036 91.25 533.161 90.625 534.744 90.625C535.327 90.625 535.744 90.6667 535.994 90.75C535.994 90.75 535.536 91.5833 534.619 93.25C533.702 94.8333 532.536 96.9583 531.119 99.625C529.786 102.208 528.411 105 526.994 108C525.577 110.917 524.286 113.75 523.119 116.5C522.036 119.167 521.327 121.417 520.994 123.25C520.744 124.333 520.619 125.333 520.619 126.25C520.619 127.583 520.869 128.458 521.369 128.875C521.869 129.292 522.411 129.5 522.994 129.5C524.577 129.5 526.244 128.667 527.994 127C529.744 125.25 531.411 123.125 532.994 120.625C534.661 118.125 536.119 115.708 537.369 113.375C538.702 110.958 539.661 109.125 540.244 107.875C540.577 107.208 540.827 106.833 540.994 106.75C541.161 106.583 541.411 106.5 541.744 106.5C542.244 106.5 542.494 106.833 542.494 107.5C542.494 107.917 542.369 108.375 542.119 108.875C541.119 110.792 539.911 113.083 538.494 115.75C537.161 118.417 535.619 121.042 533.869 123.625C532.119 126.125 530.202 128.25 528.119 130C526.036 131.667 523.786 132.5 521.369 132.5C519.702 132.5 517.952 131.917 516.119 130.75C514.369 129.583 513.494 127.417 513.494 124.25C513.494 123.333 513.577 122.375 513.744 121.375C513.911 120.292 514.202 119.125 514.619 117.875C515.286 116.208 516.077 114.417 516.994 112.5C517.911 110.583 519.411 107.958 521.494 104.625C522.077 103.708 522.411 103 522.494 102.5C522.661 102 522.744 101.583 522.744 101.25C522.744 100.25 522.286 99.75 521.369 99.75C520.619 99.75 519.494 100.167 517.994 101C516.577 101.833 514.786 103.292 512.619 105.375C510.536 107.375 508.036 110.208 505.119 113.875C502.286 117.542 498.994 122.958 495.244 130.125C494.661 131.208 493.994 131.792 493.244 131.875C492.577 131.958 491.619 132.042 490.369 132.125C489.536 132.208 488.744 132.25 487.994 132.25C487.244 132.333 486.619 132.583 486.119 133ZM550.361 132.5C545.611 132.5 542.278 131.375 540.361 129.125C538.445 126.792 537.486 123.958 537.486 120.625C537.486 116.958 538.32 113.042 539.986 108.875C541.736 104.708 543.778 101.083 546.111 98C548.528 94.75 551.195 92.25 554.111 90.5C557.028 88.6667 559.986 87.75 562.986 87.75C566.153 87.75 568.486 88.5417 569.986 90.125C571.486 91.7083 572.07 93.8333 571.736 96.5C571.57 98.1667 570.778 99.8333 569.361 101.5C567.945 103.083 566.528 103.875 565.111 103.875C564.445 103.875 563.861 103.625 563.361 103.125C564.028 102.292 564.736 101.292 565.486 100.125C566.236 98.9583 566.778 97.8333 567.111 96.75C567.445 95.75 567.611 94.75 567.611 93.75C567.611 91.6667 566.611 90.625 564.611 90.625C562.361 90.625 559.986 91.7917 557.486 94.125C555.07 96.375 552.945 98.8333 551.111 101.5C550.361 102.5 549.445 104.083 548.361 106.25C547.361 108.333 546.445 110.667 545.611 113.25C544.778 115.75 544.361 118.208 544.361 120.625C544.361 123.125 544.903 125.375 545.986 127.375C547.153 129.292 549.07 130.25 551.736 130.25C555.403 130.25 558.528 129.125 561.111 126.875C563.778 124.542 566.111 121.667 568.111 118.25C570.195 114.833 572.07 111.5 573.736 108.25C574.236 107.25 574.736 106.75 575.236 106.75C575.653 106.75 575.861 107.083 575.861 107.75C575.861 108.083 575.736 108.5 575.486 109C573.486 113.333 571.445 117.292 569.361 120.875C567.278 124.458 564.736 127.292 561.736 129.375C558.82 131.458 555.028 132.5 550.361 132.5ZM599.579 132.375C598.662 132.458 597.621 132.25 596.454 131.75C595.287 131.25 594.246 130.333 593.329 129C592.496 127.667 592.079 125.792 592.079 123.375C592.079 121.375 592.454 118.958 593.204 116.125C592.204 117.708 590.912 119.667 589.329 122C587.746 124.25 586.037 126.25 584.204 128C582.621 129.5 581.121 130.583 579.704 131.25C578.287 131.917 576.996 132.25 575.829 132.25C573.662 132.25 571.912 131.292 570.579 129.375C569.246 127.375 568.579 124.792 568.579 121.625C568.579 118.292 569.412 114.5 571.079 110.25C572.746 106 575.454 101.583 579.204 97C581.621 94.0833 584.537 91.75 587.954 90C591.454 88.1667 594.871 87.25 598.204 87.25C600.121 87.25 601.954 87.5833 603.704 88.25C605.454 88.8333 606.996 89.8333 608.329 91.25C608.912 91.8333 609.204 92.5 609.204 93.25C609.204 93.75 608.996 94.1667 608.579 94.5C608.162 94.8333 607.621 94.9167 606.954 94.75C606.037 91.8333 604.079 90.375 601.079 90.375C599.662 90.375 598.037 90.8333 596.204 91.75C593.371 93.25 590.412 95.7083 587.329 99.125C584.329 102.542 581.704 106.083 579.454 109.75C579.121 110.25 578.579 111.208 577.829 112.625C577.162 114.042 576.496 115.625 575.829 117.375C575.162 119.125 574.704 120.833 574.454 122.5C574.371 123 574.329 123.375 574.329 123.625C574.329 123.792 574.329 124.083 574.329 124.5C574.329 127.25 575.371 128.625 577.454 128.625C579.954 128.625 582.787 126.792 585.954 123.125C588.121 120.458 590.079 117.667 591.829 114.75C593.579 111.833 595.371 108.708 597.204 105.375C598.454 103.125 599.621 101.25 600.704 99.75C601.787 98.25 603.329 97.5 605.329 97.5C606.246 97.5 607.162 97.625 608.079 97.875C608.996 98.125 609.954 98.1667 610.954 98C610.287 98.6667 609.371 99.9167 608.204 101.75C607.121 103.583 605.954 105.667 604.704 108C603.454 110.333 602.329 112.708 601.329 115.125C600.329 117.542 599.621 119.625 599.204 121.375C599.121 121.875 598.996 122.583 598.829 123.5C598.746 124.417 598.704 125.083 598.704 125.5C598.704 127.833 599.371 129 600.704 129C602.037 129 603.454 128.208 604.954 126.625C606.537 125.042 608.079 123.083 609.579 120.75C611.079 118.417 612.454 116.083 613.704 113.75C614.954 111.333 615.954 109.375 616.704 107.875C617.037 107.042 617.537 106.625 618.204 106.625C618.621 106.625 618.829 106.917 618.829 107.5C618.829 107.75 618.704 108.208 618.454 108.875C617.454 110.958 616.246 113.333 614.829 116C613.412 118.583 611.871 121.125 610.204 123.625C608.537 126.042 606.787 128.083 604.954 129.75C603.204 131.333 601.412 132.208 599.579 132.375ZM631.399 132.125C629.816 132.125 628.233 131.5 626.649 130.25C625.066 128.917 624.274 126.792 624.274 123.875C624.274 121.625 624.816 119.042 625.899 116.125C626.899 113.292 628.233 110.542 629.899 107.875C631.649 105.208 632.899 103.042 633.649 101.375C633.899 100.708 634.024 100.125 634.024 99.625C634.024 98.125 633.066 97.0417 631.149 96.375C629.316 95.7083 626.899 95.3333 623.899 95.25L622.399 99.375C621.483 102.042 620.191 105.167 618.524 108.75C616.941 112.333 615.149 115.792 613.149 119.125C611.233 122.458 609.233 125.125 607.149 127.125C606.983 127.292 606.774 127.375 606.524 127.375C606.191 127.375 605.983 127.167 605.899 126.75C605.733 126.333 605.899 125.833 606.399 125.25C609.649 120.917 612.566 116.125 615.149 110.875C617.733 105.542 619.899 100.125 621.649 94.625C623.483 89.125 624.816 84.0417 625.649 79.375C625.899 78.0417 626.358 77.0833 627.024 76.5C627.691 75.8333 628.399 75.5 629.149 75.5C630.233 75.5 631.233 76.0417 632.149 77.125C633.066 78.125 633.524 79.5833 633.524 81.5C633.524 81.8333 633.483 82.2083 633.399 82.625C633.399 83.0417 633.358 83.4583 633.274 83.875C632.941 85.625 631.941 87.2917 630.274 88.875C628.691 90.375 627.399 91.5 626.399 92.25C627.233 92.3333 628.108 92.4167 629.024 92.5C629.941 92.5 630.941 92.5 632.024 92.5C635.941 92.5 639.816 92.25 643.649 91.75C643.816 92.25 643.899 92.625 643.899 92.875C643.899 93.9583 643.566 95.3333 642.899 97C642.316 98.6667 641.691 100.167 641.024 101.5C640.691 102.25 640.024 103.625 639.024 105.625C638.024 107.542 636.941 109.75 635.774 112.25C634.608 114.667 633.608 117.083 632.774 119.5C632.024 121.833 631.649 123.833 631.649 125.5C631.649 127.667 632.483 128.75 634.149 128.75C635.399 128.75 636.774 127.958 638.274 126.375C639.774 124.708 641.233 122.708 642.649 120.375C644.149 117.958 645.483 115.625 646.649 113.375C647.899 111.042 648.858 109.208 649.524 107.875C649.858 107.042 650.316 106.625 650.899 106.625C651.233 106.625 651.399 106.917 651.399 107.5C651.399 107.833 651.274 108.333 651.024 109C650.108 110.917 649.024 113.083 647.774 115.5C646.524 117.917 645.108 120.292 643.524 122.625C642.024 124.958 640.358 127 638.524 128.75C636.774 130.417 634.858 131.5 632.774 132C632.524 132.083 632.066 132.125 631.399 132.125Z" fill="#F5BB1B"/>
</g>
<defs>
<clipPath id="clip0_0_1">
<rect width="669" height="208" fill="white"/>
</clipPath>
</defs>
</svg>
